<?xml version="1.0" encoding="UTF-8"?>
<svg
  xmlns="http://www.w3.org/2000/svg"
  viewBox="-16 -24 304 468"
  fill="currentColor"
  aria-hidden="true"
>
  <path d="M272.13 68C272.13 30.44 241.67 0 204.1 0H68.03C30.46 0 0 30.45 0 68h68.03C30.46 68 0 98.44 0 136v68l272.13-.01V136H204.1c37.57 0 68.03-30.45 68.03-68Z"/>
  <path d="M272.13 351.73c0-37.56-30.46-68-68.03-68h68.03c0-37.55-30.46-68-68.03-68H68.03C30.45 215.73 0 246.18 0 283.73v68.01c0 37.56 30.46 68 68.03 68H204.1c37.57-.01 68.03-30.45 68.03-68.01Z"/>
</svg>
